<mxfile host="app.diagrams.net" modified="2020-10-27T17:26:29.125Z" agent="5.0 (Windows NT 10.0; Win64; x64) AppleWebKit/537.36 (KHTML, like Gecko) Chrome/86.0.4240.111 Safari/537.36" etag="vXXn5bdE8faJs-2HdVsp" version="13.8.5" type="github">
  <diagram id="C5RBs43oDa-KdzZeNtuy" name="Page-1">
    <mxGraphModel dx="1422" dy="794" grid="1" gridSize="10" guides="1" tooltips="1" connect="1" arrows="1" fold="1" page="1" pageScale="1" pageWidth="827" pageHeight="1169" math="0" shadow="0">
      <root>
        <mxCell id="WIyWlLk6GJQsqaUBKTNV-0" />
        <mxCell id="WIyWlLk6GJQsqaUBKTNV-1" parent="WIyWlLk6GJQsqaUBKTNV-0" />
        <mxCell id="fYevIjM1-sYKmTyxS1D9-6" style="edgeStyle=orthogonalEdgeStyle;rounded=0;orthogonalLoop=1;jettySize=auto;html=1;exitX=0.5;exitY=1;exitDx=0;exitDy=0;entryX=0.5;entryY=0;entryDx=0;entryDy=0;" edge="1" parent="WIyWlLk6GJQsqaUBKTNV-1" source="fYevIjM1-sYKmTyxS1D9-0" target="fYevIjM1-sYKmTyxS1D9-5">
          <mxGeometry relative="1" as="geometry" />
        </mxCell>
        <mxCell id="fYevIjM1-sYKmTyxS1D9-0" value="Motion Sensor" style="rounded=1;whiteSpace=wrap;html=1;" vertex="1" parent="WIyWlLk6GJQsqaUBKTNV-1">
          <mxGeometry x="270" y="30" width="100" height="40" as="geometry" />
        </mxCell>
        <mxCell id="fYevIjM1-sYKmTyxS1D9-13" value="Yes" style="edgeStyle=orthogonalEdgeStyle;rounded=0;orthogonalLoop=1;jettySize=auto;html=1;exitX=0.5;exitY=1;exitDx=0;exitDy=0;entryX=0.5;entryY=0;entryDx=0;entryDy=0;" edge="1" parent="WIyWlLk6GJQsqaUBKTNV-1" source="fYevIjM1-sYKmTyxS1D9-1" target="fYevIjM1-sYKmTyxS1D9-12">
          <mxGeometry relative="1" as="geometry" />
        </mxCell>
        <mxCell id="fYevIjM1-sYKmTyxS1D9-15" value="No" style="edgeStyle=orthogonalEdgeStyle;rounded=0;orthogonalLoop=1;jettySize=auto;html=1;exitX=1;exitY=0.5;exitDx=0;exitDy=0;" edge="1" parent="WIyWlLk6GJQsqaUBKTNV-1" source="fYevIjM1-sYKmTyxS1D9-1" target="fYevIjM1-sYKmTyxS1D9-14">
          <mxGeometry relative="1" as="geometry" />
        </mxCell>
        <mxCell id="fYevIjM1-sYKmTyxS1D9-1" value="Hue Lights On?" style="rhombus;whiteSpace=wrap;html=1;" vertex="1" parent="WIyWlLk6GJQsqaUBKTNV-1">
          <mxGeometry x="280" y="330" width="80" height="80" as="geometry" />
        </mxCell>
        <mxCell id="fYevIjM1-sYKmTyxS1D9-4" value="Walk in/out of room&lt;br&gt;&lt;br&gt;MOTION SENSOR detects&lt;br&gt;(auto)&lt;br&gt;&lt;br&gt;HUE LIGHTS ALL turn ON/OFF, set to mid brightness&lt;br&gt;(auto)&lt;br&gt;&lt;br&gt;When LIGHTS ON, OLED display reads TEMP&lt;br&gt;(auto)&lt;br&gt;&lt;br&gt;When LIGHTS OFF, LED PIXEL STRIP turns ON&lt;br&gt;(auto)&lt;br&gt;&lt;br&gt;At ALL TIMES ENCODER acts like a dimmer switch with BRIGHTNESS&lt;br&gt;(auto)&lt;br&gt;&lt;br&gt;&lt;span style=&quot;background-color: rgb(51 , 153 , 255)&quot;&gt;BLUE &lt;/span&gt;BUTTON has ON/OFF&lt;br&gt;&lt;br&gt;When ON, WEMO 1 turns ON, &lt;span style=&quot;background-color: rgb(51 , 153 , 255)&quot;&gt;BLUE &lt;/span&gt;DIODE LED turns ON&lt;br&gt;(manual)&lt;br&gt;&lt;br&gt;When OFF,&lt;br&gt;WEMO 1 turns OFF, &lt;span style=&quot;background-color: rgb(51 , 153 , 255)&quot;&gt;BLUE &lt;/span&gt;DIODE LED turns OFF&lt;br&gt;(manual)&lt;br&gt;&lt;br&gt;&lt;span style=&quot;background-color: rgb(255 , 255 , 0)&quot;&gt;YELLOW &lt;/span&gt;BUTTON&lt;br&gt;has ON/OFF&lt;br&gt;&lt;br&gt;When ON, WEMO 2 turns ON, &lt;span style=&quot;background-color: rgb(255 , 255 , 0)&quot;&gt;YELLOW &lt;/span&gt;DIODE LED turns ON&lt;br&gt;(manual)&lt;br&gt;&lt;br&gt;When OFF,&lt;br&gt;WEMO 2 turns OFF, &lt;span style=&quot;background-color: rgb(255 , 255 , 0)&quot;&gt;YELLOW &lt;/span&gt;DIODE LED turns OFF&lt;br&gt;(manual)&lt;br&gt;&lt;br&gt;&lt;span style=&quot;background-color: rgb(255 , 51 , 51)&quot;&gt;RED &lt;/span&gt;BUTTON has ON/OFF&lt;br&gt;&lt;br&gt;When ON, WEMO 3 turns ON, &lt;span style=&quot;background-color: rgb(255 , 51 , 51)&quot;&gt;RED &lt;/span&gt;DIODE LED turns ON&lt;br&gt;(manual)&lt;br&gt;&lt;br&gt;When OFF,&lt;br&gt;WEMO 3 turns OFF, &lt;span style=&quot;background-color: rgb(255 , 51 , 51)&quot;&gt;RED &lt;/span&gt;DIODE LED turns OFF&lt;br&gt;(manual)" style="text;html=1;strokeColor=none;fillColor=none;align=center;verticalAlign=middle;whiteSpace=wrap;rounded=0;" vertex="1" parent="WIyWlLk6GJQsqaUBKTNV-1">
          <mxGeometry x="10" y="10" width="110" height="1090" as="geometry" />
        </mxCell>
        <mxCell id="fYevIjM1-sYKmTyxS1D9-8" value="No" style="edgeStyle=orthogonalEdgeStyle;rounded=0;orthogonalLoop=1;jettySize=auto;html=1;exitX=1;exitY=0.5;exitDx=0;exitDy=0;" edge="1" parent="WIyWlLk6GJQsqaUBKTNV-1" source="fYevIjM1-sYKmTyxS1D9-5" target="fYevIjM1-sYKmTyxS1D9-7">
          <mxGeometry relative="1" as="geometry" />
        </mxCell>
        <mxCell id="fYevIjM1-sYKmTyxS1D9-10" value="Yes" style="edgeStyle=orthogonalEdgeStyle;rounded=0;orthogonalLoop=1;jettySize=auto;html=1;exitX=0.5;exitY=1;exitDx=0;exitDy=0;entryX=0.5;entryY=0;entryDx=0;entryDy=0;" edge="1" parent="WIyWlLk6GJQsqaUBKTNV-1" source="fYevIjM1-sYKmTyxS1D9-5" target="fYevIjM1-sYKmTyxS1D9-9">
          <mxGeometry relative="1" as="geometry" />
        </mxCell>
        <mxCell id="fYevIjM1-sYKmTyxS1D9-5" value="Is there motion?" style="rhombus;whiteSpace=wrap;html=1;" vertex="1" parent="WIyWlLk6GJQsqaUBKTNV-1">
          <mxGeometry x="280" y="120" width="80" height="80" as="geometry" />
        </mxCell>
        <mxCell id="fYevIjM1-sYKmTyxS1D9-17" style="edgeStyle=orthogonalEdgeStyle;rounded=0;orthogonalLoop=1;jettySize=auto;html=1;exitX=1;exitY=0.5;exitDx=0;exitDy=0;entryX=1;entryY=0.5;entryDx=0;entryDy=0;" edge="1" parent="WIyWlLk6GJQsqaUBKTNV-1" source="fYevIjM1-sYKmTyxS1D9-7" target="fYevIjM1-sYKmTyxS1D9-0">
          <mxGeometry relative="1" as="geometry" />
        </mxCell>
        <mxCell id="fYevIjM1-sYKmTyxS1D9-7" value="LEDs ON" style="rounded=1;whiteSpace=wrap;html=1;fontSize=12;glass=0;strokeWidth=1;shadow=0;" vertex="1" parent="WIyWlLk6GJQsqaUBKTNV-1">
          <mxGeometry x="410" y="140" width="120" height="40" as="geometry" />
        </mxCell>
        <mxCell id="fYevIjM1-sYKmTyxS1D9-11" style="edgeStyle=orthogonalEdgeStyle;rounded=0;orthogonalLoop=1;jettySize=auto;html=1;exitX=0.5;exitY=1;exitDx=0;exitDy=0;entryX=0.5;entryY=0;entryDx=0;entryDy=0;" edge="1" parent="WIyWlLk6GJQsqaUBKTNV-1" source="fYevIjM1-sYKmTyxS1D9-9" target="fYevIjM1-sYKmTyxS1D9-1">
          <mxGeometry relative="1" as="geometry" />
        </mxCell>
        <mxCell id="fYevIjM1-sYKmTyxS1D9-9" value="Turn Hue Lights ON" style="rounded=1;whiteSpace=wrap;html=1;fontSize=12;glass=0;strokeWidth=1;shadow=0;" vertex="1" parent="WIyWlLk6GJQsqaUBKTNV-1">
          <mxGeometry x="260" y="250" width="120" height="40" as="geometry" />
        </mxCell>
        <mxCell id="fYevIjM1-sYKmTyxS1D9-16" style="edgeStyle=orthogonalEdgeStyle;rounded=0;orthogonalLoop=1;jettySize=auto;html=1;exitX=0;exitY=0.5;exitDx=0;exitDy=0;entryX=0;entryY=0.5;entryDx=0;entryDy=0;" edge="1" parent="WIyWlLk6GJQsqaUBKTNV-1" source="fYevIjM1-sYKmTyxS1D9-12" target="fYevIjM1-sYKmTyxS1D9-9">
          <mxGeometry relative="1" as="geometry" />
        </mxCell>
        <mxCell id="fYevIjM1-sYKmTyxS1D9-12" value="OLED displays TEMP" style="rounded=1;whiteSpace=wrap;html=1;fontSize=12;glass=0;strokeWidth=1;shadow=0;" vertex="1" parent="WIyWlLk6GJQsqaUBKTNV-1">
          <mxGeometry x="260" y="450" width="120" height="40" as="geometry" />
        </mxCell>
        <mxCell id="fYevIjM1-sYKmTyxS1D9-18" style="edgeStyle=orthogonalEdgeStyle;rounded=0;orthogonalLoop=1;jettySize=auto;html=1;exitX=1;exitY=0.5;exitDx=0;exitDy=0;" edge="1" parent="WIyWlLk6GJQsqaUBKTNV-1" source="fYevIjM1-sYKmTyxS1D9-14">
          <mxGeometry relative="1" as="geometry">
            <mxPoint x="550" y="160" as="targetPoint" />
            <Array as="points">
              <mxPoint x="550" y="370" />
            </Array>
          </mxGeometry>
        </mxCell>
        <mxCell id="fYevIjM1-sYKmTyxS1D9-14" value="LEDs ON" style="rounded=1;whiteSpace=wrap;html=1;fontSize=12;glass=0;strokeWidth=1;shadow=0;" vertex="1" parent="WIyWlLk6GJQsqaUBKTNV-1">
          <mxGeometry x="414" y="350" width="120" height="40" as="geometry" />
        </mxCell>
      </root>
    </mxGraphModel>
  </diagram>
</mxfile>
